# xmcd
#
# Track frame offsets: 
#        168
#        24509
#        40076
#        59462
#        73784
#        87291
#        104893
#        137991
#        154220
#        169520
#        185060
#        205896
#        218634
#        236894
#        252114
#        269458
#        282758
#        299524
#
# Disc length: 4230 seconds
#
# Revision: 0
# Processed by: cddbd v1.5.2PL0 Copyright (c) Steve Scherf et al.
# Submitted via: ExactAudioCopyFreeDBPlugin 1.0
#
DISCID=1c108412
DTITLE=MICHAEL STONE - Little Moments
DYEAR=1900
DGENRE=Country
TTITLE0=Blue Ridge Mountain Song
TTITLE1=House with no curtains
TTITLE2=He drinks Tequila
TTITLE3=Toes
TTITLE4=Pop a Hop
TTITLE5=Brokenheartsville
TTITLE6=Dixie Highway
TTITLE7=The famous last words
TTITLE8=He stopped loving her today
TTITLE9=I just want to dance with you
TTITLE10=I still like bologna
TTITLE11=Lovebug
TTITLE12=Old Hippie
TTITLE13=Tennessee river run
TTITLE14=There goes
TTITLE15=Who`s gonna till there shous
TTITLE16=I don`t know what she said
TTITLE17=Little Moments
EXTD=
EXTT0=
EXTT1=
EXTT2=
EXTT3=
EXTT4=
EXTT5=
EXTT6=
EXTT7=
EXTT8=
EXTT9=
EXTT10=
EXTT11=
EXTT12=
EXTT13=
EXTT14=
EXTT15=
EXTT16=
EXTT17=
PLAYORDER=
